<!DOCTYPE svg PUBLIC "-//W3C//DTD SVG 1.1//EN" "http://www.w3.org/Graphics/SVG/1.1/DTD/svg11.dtd">

<!-- Uploaded to: SVG Repo, www.svgrepo.com, Transformed by: SVG Repo Mixer Tools -->
<svg width="64px" height="64px" viewBox="-30.72 -30.72 253.44 253.44" xmlns="http://www.w3.org/2000/svg" fill="none">

<g id="SVGRepo_bgCarrier" stroke-width="0" transform="translate(0,0), scale(1)">

<path transform="translate(-30.72, -30.72), scale(15.84)" fill="#0466C8" d="M9.166.33a2.25 2.25 0 00-2.332 0l-5.25 3.182A2.25 2.25 0 00.5 5.436v5.128a2.25 2.25 0 001.084 1.924l5.25 3.182a2.25 2.25 0 002.332 0l5.25-3.182a2.25 2.25 0 001.084-1.924V5.436a2.25 2.25 0 00-1.084-1.924L9.166.33z" strokewidth="0"/>

</g>

<g id="SVGRepo_tracerCarrier" stroke-linecap="round" stroke-linejoin="round" stroke="#fff" stroke-width="0.384"/>

<g id="SVGRepo_iconCarrier">

<path stroke="#fff" stroke-width="12" d="M80 105.485 48.284 73.769a4 4 0 0 0-5.657 0l-19.799 19.8a4 4 0 0 0 0 5.656L65.603 142"/>

<rect width="36" height="132" x="147.279" y="37" stroke="#fff" stroke-linejoin="round" stroke-width="12" rx="4" transform="rotate(45 147.279 37)"/>

</g>

</svg>